<?xml version="1.0" standalone="no"?>
<!DOCTYPE svg PUBLIC "-//W3C//DTD SVG 20010904//EN"
 "http://www.w3.org/TR/2001/REC-SVG-20010904/DTD/svg10.dtd">
<svg version="1.0" xmlns="http://www.w3.org/2000/svg"
 width="564.000000pt" height="800.000000pt" viewBox="0 0 564.000000 800.000000"
 preserveAspectRatio="xMidYMid meet">

<g transform="translate(0.000000,800.000000) scale(0.100000,-0.100000)"
fill="#000000" stroke="none">
<path d="M2610 7994 c-704 -66 -1298 -340 -1781 -823 -538 -538 -828 -1238
-829 -1996 0 -883 577 -2183 1675 -3770 350 -505 971 -1315 1058 -1379 37 -28
130 -28 170 -1 50 32 416 486 685 846 608 816 1088 1569 1421 2229 421 833
631 1523 631 2072 -1 761 -290 1460 -829 1999 -440 439 -969 705 -1591 800
-131 20 -496 33 -610 23z m615 -353 c396 -72 706 -199 1020 -416 487 -339 848
-857 990 -1421 131 -520 100 -998 -105 -1599 -302 -887 -925 -1964 -1839
-3185 -161 -215 -460 -590 -471 -590 -18 0 -423 531 -703 921 -913 1277 -1500
2379 -1706 3204 -70 280 -75 326 -76 625 0 305 8 379 70 623 218 866 925 1572
1794 1792 93 23 293 60 376 69 22 2 150 3 285 1 199 -2 267 -7 365 -24z"/>
</g>
</svg>
