<?xml version="1.0" standalone="no"?>
<!DOCTYPE svg PUBLIC "-//W3C//DTD SVG 20010904//EN"
 "http://www.w3.org/TR/2001/REC-SVG-20010904/DTD/svg10.dtd">
<svg version="1.0" xmlns="http://www.w3.org/2000/svg"
 width="2381.000000pt" height="1678.000000pt" viewBox="0 0 2381.000000 1678.000000"
 preserveAspectRatio="xMidYMid meet">

<g transform="translate(0.000000,1678.000000) scale(0.100000,-0.100000)"
fill="#000000" stroke="none">
<path d="M2210 15077 c-47 -16 -80 -68 -80 -125 0 -49 29 -270 61 -457 11 -66
29 -178 40 -250 23 -151 83 -473 104 -560 8 -33 28 -132 45 -220 17 -88 48
-232 70 -320 46 -189 77 -321 119 -505 17 -74 52 -209 77 -300 25 -91 58 -214
74 -275 30 -120 99 -360 160 -555 22 -69 55 -179 75 -245 123 -403 328 -986
510 -1451 89 -224 246 -604 289 -696 19 -42 56 -124 80 -181 96 -224 301 -646
326 -669 11 -10 27 -42 37 -71 34 -100 243 -507 386 -752 445 -765 698 -1154
1077 -1660 146 -194 345 -450 375 -481 5 -6 25 -29 43 -52 33 -40 50 -60 95
-112 12 -14 47 -54 77 -89 30 -36 62 -72 70 -81 8 -9 42 -47 75 -84 69 -78 72
-82 260 -282 174 -186 233 -244 415 -415 129 -121 174 -163 285 -264 17 -15
54 -48 84 -74 30 -25 65 -56 78 -68 13 -11 43 -36 65 -55 23 -18 69 -56 102
-84 445 -372 1128 -835 1636 -1108 133 -72 534 -272 620 -310 36 -16 103 -45
150 -66 363 -161 841 -335 1220 -445 102 -29 196 -55 210 -58 14 -3 97 -23
185 -46 88 -23 176 -41 196 -41 102 0 761 162 1100 270 332 106 764 268 964
360 44 20 105 47 135 61 114 50 438 213 598 301 571 313 1142 708 1656 1147
271 231 633 570 791 741 53 58 111 119 129 136 55 53 324 359 467 530 700 840
1343 1837 1878 2914 67 135 137 279 156 320 18 41 58 127 88 190 215 450 517
1193 729 1790 431 1215 801 2634 1007 3861 69 410 95 609 86 666 -13 85 -91
132 -168 100 -56 -24 -66 -49 -93 -239 -65 -454 -169 -1018 -274 -1498 -29
-129 -60 -273 -70 -320 -49 -231 -162 -673 -246 -965 -184 -634 -249 -845
-409 -1315 -148 -435 -383 -1049 -560 -1459 -74 -173 -76 -177 -139 -315 -25
-54 -46 -100 -46 -102 0 -3 -19 -44 -110 -239 -124 -267 -425 -847 -588 -1135
-159 -279 -397 -669 -591 -965 -25 -39 -50 -78 -56 -87 -137 -220 -751 -1019
-946 -1229 -42 -46 -83 -92 -134 -154 -169 -204 -657 -686 -931 -922 -12 -10
-49 -43 -84 -73 -251 -219 -657 -527 -967 -733 -1016 -675 -2050 -1107 -3270
-1367 l-101 -21 -179 46 c-1130 294 -2077 715 -3033 1350 -401 265 -809 579
-1136 870 -300 268 -569 531 -784 764 -58 63 -118 128 -134 145 -15 17 -53 60
-84 95 -31 34 -66 73 -77 85 -11 13 -36 43 -57 67 -20 24 -46 55 -58 69 -266
309 -527 653 -846 1115 -99 143 -193 283 -209 310 -15 28 -54 89 -86 136 -235
351 -764 1323 -1012 1859 -14 30 -44 96 -67 145 -92 197 -280 634 -380 886
-161 402 -254 656 -430 1174 -404 1191 -772 2721 -925 3850 -15 110 -32 212
-37 228 -21 55 -95 86 -158 64z"/>
</g>
</svg>
